# File created by Blade
# Date/Time:  Thu Mar 15 16:00:31 2018
#---------------------------------------------------------
:version 1.10
:name HOM
:units
  mass 1.0
  length 1.000000
  angle deg
:documentation
     Acclaim Skeleton File
:root
   axis xyz
   order TX TY TZ RX RZ RY
   position 0.000000 0.000000 0.000000
   orientation 0 0 0
:bonedata
   begin
      id 1
      name Spine_dum
      direction 0.000000 0.554700 0.832050
      length 3.185137
      axis 0.0 0.0 0.0 xyz
   end
   begin
      id 2
      name RightUpLeg_dum
      direction -0.959879 0.000000 -0.280414
      length 3.741437
      axis 0.0 0.0 0.0 xyz
   end
   begin
      id 3
      name LeftUpLeg_dum
      direction 0.959879 0.000000 -0.280414
      length 3.741437
      axis 0.0 0.0 0.0 xyz
   end
   begin
      id 4
      name Spine
      direction 0.000000 0.173648 0.984808
      length 3.533592
      axis -10.0 0.0 0.0 xyz
      dof rx rz ry
   end
   begin
      id 5
      name Spine1
      direction 0.000000 0.087156 0.996195
      length 3.533592
      axis -5.0 0.0 0.0 xyz
      dof rx rz ry
   end
   begin
      id 6
      name Spine2
      direction 0.000000 0.000000 1.000000
      length 3.533592
      axis 0.0 0.0 0.0 xyz
      dof rx rz ry
   end
   begin
      id 7
      name Spine3
      direction 0.000000 -0.141421 0.989949
      length 0.000000
      axis 0.0 0.0 0.0 xyz
      dof rx rz ry
   end
   begin
      id 8
      name Spine3_dum1
      direction 0.000000 -0.141421 0.989949
      length 9.369850
      axis 0.0 0.0 0.0 xyz
   end
   begin
      id 9
      name Spine3_dum2
      direction -0.174242 -0.290403 0.940907
      length 6.947577
      axis 0.0 0.0 0.0 xyz
   end
   begin
      id 10
      name Spine3_dum3
      direction 0.174242 -0.290403 0.940907
      length 6.947577
      axis 0.0 0.0 0.0 xyz
   end
   begin
      id 11
      name Neck
      direction 0.000000 -0.173648 0.984808
      length 4.858689
      axis 10.0 0.0 0.0 xyz
      dof rx rz ry
   end
   begin
      id 12
      name Head
      direction 0.000000 0.000000 1.000000
      length 5.720002
      axis 0.0 0.0 0.0 xyz
      dof rx rz ry
   end
   begin
      id 13
      name RightShoulder
      direction -1.000000 0.000000 0.000000
      length 6.012446
      axis -180.0 0.0 -180.0 xyz
      dof rz rx ry
   end
   begin
      id 14
      name RightArm
      direction -1.000000 0.000000 0.000000
      length 11.728112
      axis -180.0 0.0 -180.0 xyz
      dof ry rz rx
   end
   begin
      id 15
      name RightForeArm
      direction -1.000000 0.000000 0.000000
      length 4.841601
      axis -180.0 0.0 -180.0 xyz
      dof rx ry rz
   end
   begin
      id 16
      name RightForeArmRoll
      direction -1.000000 0.000000 0.000000
      length 5.003964
      axis -180.0 0.0 -180.0 xyz
      dof rx ry rz
   end
   begin
      id 17
      name RightHand
      direction -1.000000 0.000000 0.000000
      length 0.000000
      axis -180.0 0.0 -180.0 xyz
      dof rx ry rz
   end
   begin
      id 18
      name RightHand_dum1
      direction -1.000000 0.000000 0.000000
      length 2.836875
      axis -180.0 0.0 -180.0 xyz
   end
   begin
      id 19
      name RightHand_dum2
      direction -0.486664 -0.811107 -0.324443
      length 2.331690
      axis -180.0 0.0 -180.0 xyz
   end
   begin
      id 20
      name RightHandEnd
      direction -1.000000 0.000000 0.000000
      length 2.836875
      axis 90.0 0.0 -180.0 xyz
      dof rx ry rz
   end
   begin
      id 21
      name RightHandThumb1
      direction -0.965926 -0.258819 0.000000
      length 2.836875
      axis -10.0 0.0 -165.0 xyz
      dof rx ry rz
   end
   begin
      id 22
      name LeftShoulder
      direction 1.000000 0.000000 0.000000
      length 6.012446
      axis 0.0 0.0 0.0 xyz
      dof rz rx ry
   end
   begin
      id 23
      name LeftArm
      direction 1.000000 0.000000 0.000000
      length 11.728112
      axis 0.0 0.0 0.0 xyz
      dof ry rz rx
   end
   begin
      id 24
      name LeftForeArm
      direction 1.000000 0.000000 0.000000
      length 4.841601
      axis 0.0 0.0 0.0 xyz
      dof rx ry rz
   end
   begin
      id 25
      name LeftForeArmRoll
      direction 1.000000 0.000000 0.000000
      length 5.003964
      axis 0.0 0.0 0.0 xyz
      dof rx ry rz
   end
   begin
      id 26
      name LeftHand
      direction 1.000000 0.000000 0.000000
      length 0.000000
      axis 0.0 0.0 0.0 xyz
      dof rx ry rz
   end
   begin
      id 27
      name LeftHand_dum1
      direction 1.000000 0.000000 0.000000
      length 2.836875
      axis 0.0 0.0 0.0 xyz
   end
   begin
      id 28
      name LeftHand_dum2
      direction 0.486664 -0.811107 -0.324443
      length 2.331690
      axis 0.0 0.0 0.0 xyz
   end
   begin
      id 29
      name LeftHandEnd
      direction 1.000000 0.000000 0.000000
      length 2.836875
      axis 90.0 0.0 0.0 xyz
      dof rx ry rz
   end
   begin
      id 30
      name LeftHandThumb1
      direction 0.965926 -0.258819 0.000000
      length 2.836875
      axis 170.0 0.0 -15.0 xyz
      dof rx ry rz
   end
   begin
      id 31
      name RightUpLeg
      direction 0.000000 0.000000 -1.000000
      length 15.861483
      axis 0.0 90.0 0.0 xyz
      dof ry rz rx
   end
   begin
      id 32
      name RightLeg
      direction 0.000000 0.000000 -1.000000
      length 17.164458
      axis 0.0 90.0 0.0 xyz
      dof rx ry rz
   end
   begin
      id 33
      name RightFoot
      direction 0.000000 -0.939693 -0.342020
      length 7.211980
      axis -90.0 20.0 -90.0 xyz
      dof rx rz ry
   end
   begin
      id 34
      name RightToeBase
      direction 0.000000 -1.000000 0.000000
      length 2.905343
      axis -90.0 0.0 -90.0 xyz
      dof ry rz rx
   end
   begin
      id 35
      name LeftUpLeg
      direction 0.000000 0.000000 -1.000000
      length 15.861483
      axis 0.0 90.0 0.0 xyz
      dof ry rz rx
   end
   begin
      id 36
      name LeftLeg
      direction 0.000000 0.000000 -1.000000
      length 17.164458
      axis 0.0 90.0 0.0 xyz
      dof rx ry rz
   end
   begin
      id 37
      name LeftFoot
      direction 0.000000 -0.939693 -0.342020
      length 7.211980
      axis -90.0 20.0 -90.0 xyz
      dof rx rz ry
   end
   begin
      id 38
      name LeftToeBase
      direction 0.000000 -1.000000 0.000000
      length 2.905343
      axis -90.0 0.0 -90.0 xyz
      dof ry rz rx
   end
:hierarchy
   begin
      root Spine_dum RightUpLeg_dum LeftUpLeg_dum
      Spine_dum Spine
      RightUpLeg_dum RightUpLeg
      LeftUpLeg_dum LeftUpLeg
      Spine Spine1
      Spine1 Spine2
      Spine2 Spine3
      Spine3 Spine3_dum1 Spine3_dum2 Spine3_dum3
      Spine3_dum1 Neck
      Spine3_dum2 RightShoulder
      Spine3_dum3 LeftShoulder
      Neck Head
      RightShoulder RightArm
      RightArm RightForeArm
      RightForeArm RightForeArmRoll
      RightForeArmRoll RightHand
      RightHand RightHand_dum1 RightHand_dum2
      RightHand_dum1 RightHandEnd
      RightHand_dum2 RightHandThumb1
      LeftShoulder LeftArm
      LeftArm LeftForeArm
      LeftForeArm LeftForeArmRoll
      LeftForeArmRoll LeftHand
      LeftHand LeftHand_dum1 LeftHand_dum2
      LeftHand_dum1 LeftHandEnd
      LeftHand_dum2 LeftHandThumb1
      RightUpLeg RightLeg
      RightLeg RightFoot
      RightFoot RightToeBase
      LeftUpLeg LeftLeg
      LeftLeg LeftFoot
      LeftFoot LeftToeBase
   end

# File created by Blade
# Date/Time:  Thu Mar 15 15:59:21 2018
# Frame Rate: 120.000 fps
#------------------------------------------------------
:FULLY-SPECIFIED
:DEGREES
44
root -0.204428 38.215132 -0.762267 -89.065231 0.329540 -0.012722
Spine -0.281088 0.076154 0.423817
Spine1 -0.675867 -0.002905 0.034191
Spine2 1.414820 0.309618 0.488019
Spine3 0.128476 -0.082580 -0.390476
Neck -1.271157 -0.134727 0.112483
Head -1.060411 -0.963168 -0.285599
RightShoulder 0.781330 -4.285470 -5.959430
RightArm -68.010254 -18.589392 -9.062021
RightForeArm 0.000000 -0.000000 -31.271677
RightForeArmRoll 4.593042 -0.000000 -0.000000
RightHand 0.000000 8.015951 -3.105919
RightHandEnd 0.000000 -0.000000 0.000000
RightHandThumb1 0.000000 -0.000000 0.000000
LeftShoulder 3.068001 5.068166 6.379010
LeftArm 67.666962 -38.269157 1.834894
LeftForeArm 0.000000 -0.000000 -19.248732
LeftForeArmRoll -4.500209 -0.000000 0.000000
LeftHand -0.000000 -21.266939 1.122491
LeftHandEnd 0.000000 -0.000000 0.000000
LeftHandThumb1 0.000000 -0.000000 0.000000
RightUpLeg 4.355947 -1.496471 9.474683
RightLeg -0.000000 -0.000000 14.910236
RightFoot 3.960934 -15.043670 -2.094947
RightToeBase -0.000000 0.669031 -0.000000
LeftUpLeg -4.875363 0.551880 0.811847
LeftLeg -0.000000 -0.000000 11.231504
LeftFoot -8.029386 -12.671584 -0.472103
LeftToeBase -0.000000 0.942348 -0.000000
45
root -0.204712 38.214282 -0.764393 -89.036926 0.322220 0.004592
Spine -0.283390 0.074970 0.415195
Spine1 -0.678070 -0.003022 0.029556
Spine2 1.407564 0.312639 0.498388
Spine3 0.127990 -0.084853 -0.389917
Neck -1.277504 -0.135733 0.099951
Head -1.058393 -0.966410 -0.278749
RightShoulder 0.830073 -4.345243 -5.990633
RightArm -67.988586 -18.658638 -8.999786
RightForeArm 0.000000 -0.000000 -31.276857
RightForeArmRoll 4.456353 -0.000000 -0.000000
RightHand 0.000000 8.009197 -3.016829
RightHandEnd 0.000000 -0.000000 0.000000
RightHandThumb1 0.000000 -0.000000 0.000000
LeftShoulder 3.038058 5.056047 6.319078
LeftArm 67.809349 -37.977261 1.674980
LeftForeArm 0.000000 -0.000000 -19.312511
LeftForeArmRoll -4.463398 -0.000000 0.000000
LeftHand 0.000000 -20.707499 1.221698
LeftHandEnd 0.000000 -0.000000 0.000000
LeftHandThumb1 0.000000 -0.000000 0.000000
RightUpLeg 4.339649 -1.522638 9.479082
RightLeg -0.000000 -0.000000 14.902300
RightFoot 3.946090 -15.037919 -2.080553
RightToeBase -0.000000 0.670033 -0.000000
LeftUpLeg -4.893104 0.484906 0.770286
LeftLeg -0.000000 -0.000000 11.282722
LeftFoot -8.022073 -12.682220 -0.399463
LeftToeBase -0.000000 0.930113 -0.000000
46
root -0.205504 38.214996 -0.765475 -89.020287 0.294653 0.024378
Spine -0.280714 0.073442 0.398678
Spine1 -0.676144 -0.002447 0.028067
Spine2 1.404619 0.318079 0.491918
Spine3 0.126130 -0.079225 -0.397742
Neck -1.290695 -0.147798 0.081021
Head -1.034410 -0.984900 -0.248398
RightShoulder 0.872123 -4.363915 -5.992308
RightArm -67.991463 -18.691917 -8.975856
RightForeArm 0.000000 -0.000000 -31.283340
RightForeArmRoll 4.030506 -0.000000 -0.000000
RightHand -0.000000 7.845140 -2.860156
RightHandEnd 0.000000 -0.000000 0.000000
RightHandThumb1 0.000000 -0.000000 0.000000
LeftShoulder 3.013646 5.089017 6.380745
LeftArm 67.692429 -38.147850 1.752267
LeftForeArm 0.000000 -0.000000 -19.279011
LeftForeArmRoll -5.391481 -0.000000 0.000000
LeftHand 0.000000 -21.405325 0.523883
LeftHandEnd 0.000000 -0.000000 0.000000
LeftHandThumb1 0.000000 -0.000000 0.000000
RightUpLeg 4.285681 -1.549276 9.539568
RightLeg -0.000000 -0.000000 14.940401
RightFoot 3.954990 -15.020400 -2.020398
RightToeBase -0.000000 0.707162 -0.000000
LeftUpLeg -4.930657 0.439481 0.756799
LeftLeg -0.000000 -0.000000 11.320938
LeftFoot -8.025101 -12.689158 -0.360032
LeftToeBase -0.000000 0.949179 -0.000000
47
root -0.205185 38.216669 -0.764401 -89.015587 0.278120 0.040831
Spine -0.273535 0.074698 0.393655
Spine1 -0.665110 -0.001595 0.027103
Spine2 1.395424 0.327135 0.485357
Spine3 0.123369 -0.073236 -0.401953
Neck -1.295379 -0.162705 0.047374
Head -1.020104 -1.003960 -0.199655
RightShoulder 0.892994 -4.377432 -5.988646
RightArm -68.008537 -18.697760 -8.971705
RightForeArm 0.000000 -0.000000 -31.308317
RightForeArmRoll 3.890405 -0.000000 -0.000000
RightHand 0.000000 7.790099 -2.813003
RightHandEnd 0.000000 -0.000000 0.000000
RightHandThumb1 0.000000 -0.000000 0.000000
LeftShoulder 2.985476 5.067841 6.400100
LeftArm 67.647423 -38.246464 1.830886
LeftForeArm 0.000000 -0.000000 -19.256716
LeftForeArmRoll -5.586528 -0.000000 0.000000
LeftHand 0.000000 -21.639227 0.349739
LeftHandEnd 0.000000 -0.000000 0.000000
LeftHandThumb1 0.000000 -0.000000 0.000000
RightUpLeg 4.259268 -1.529951 9.517796
RightLeg -0.000000 -0.000000 14.913652
RightFoot 3.996958 -15.020587 -1.984385
RightToeBase -0.000000 0.759679 -0.000000
LeftUpLeg -4.955867 0.420193 0.753277
LeftLeg -0.000000 -0.000000 11.346165
LeftFoot -8.030417 -12.696374 -0.333075
LeftToeBase -0.000000 0.952231 -0.000000
